<?xml version="1.0" encoding="UTF-8"?>
<svg version="1.1" xmlns="http://www.w3.org/2000/svg" width="453" height="662">
<path d="M0 0 C2.78771969 3.40022975 4.66243744 7.12279974 6.5546875 11.0625 C6.89227585 11.75723419 7.2298642 12.45196838 7.5776825 13.16775513 C8.68136568 15.44298618 9.77839971 17.72134774 10.875 20 C11.64563654 21.59364306 12.41638975 23.1872297 13.18725586 24.78076172 C18.26393129 35.29606314 23.22022403 45.862018 28.1015625 56.46948242 C33.34995063 67.84071736 38.82580002 79.09865917 44.32380676 90.35083008 C45.26279457 92.27892729 46.19372856 94.21076287 47.12402344 96.14306641 C48.41339355 98.81644008 49.74591299 101.46319721 51.10253906 104.10302734 C51.76921401 105.43700771 52.4355664 106.77114934 53.1015625 108.10546875 C53.58343521 109.01248283 53.58343521 109.01248283 54.07504272 109.93782043 C55.53303265 112.90880261 56.07291894 114.63138348 55.42456055 117.90893555 C54.71940308 119.43901245 54.71940308 119.43901245 54 121 C53.72333496 121.61705307 53.44666992 122.23410614 53.16162109 122.86985779 C52.17284255 125.04570797 51.14330813 127.19869833 50.10546875 129.3515625 C49.53023972 130.55616119 49.53023972 130.55616119 48.94338989 131.78509521 C48.12149268 133.50560474 47.29808287 135.22539237 46.47329712 136.94451904 C44.2950435 141.48548998 42.12845706 146.0320232 39.9609375 150.578125 C39.31427879 151.93343826 39.31427879 151.93343826 38.65455627 153.31613159 C35.15967315 160.64742852 31.71866354 168.00200559 28.3125 175.375 C23.58466408 185.60391956 18.80570034 195.80751744 14 206 C9.1352365 216.31900341 4.29361606 226.64770198 -0.5 237 C-5.63219769 248.08349926 -10.82258848 259.13858418 -16.03076172 270.18652344 C-20.55114566 279.77703873 -25.0449678 289.37890802 -29.5 299 C-34.63219769 310.08349926 -39.82258848 321.13858418 -45.03076172 332.18652344 C-49.55114566 341.77703873 -54.0449678 351.37890802 -58.5 361 C-63.63219769 372.08349926 -68.82258848 383.13858418 -74.03076172 394.18652344 C-78.55114566 403.77703873 -83.0449678 413.37890802 -87.5 423 C-92.29361716 433.3523004 -97.13546342 443.68088793 -102 454 C-108.60232082 468.00589704 -115.14245907 482.03933723 -121.65039062 496.08935547 C-124.42131771 502.06529482 -127.20941399 508.03321973 -130 514 C-131.8125 513.8125 -131.8125 513.8125 -134 513 C-135.75 510.4375 -135.75 510.4375 -137 508 C-137.73863281 508.56847656 -138.47726562 509.13695312 -139.23828125 509.72265625 C-145.22938889 514.28259713 -151.20008586 518.50401469 -157.72265625 522.296875 C-160.31650056 524.23669682 -161.51965287 526.14608488 -163 529 C-161.26424351 529.87436418 -161.26424351 529.87436418 -159 530 C-157.88625 529.0409375 -157.88625 529.0409375 -156.75 528.0625 C-152.82558352 525.11918764 -150.83864749 525.38556857 -146 526 C-143.5 527.4375 -143.5 527.4375 -142 530 C-141.34100818 534.12816715 -141.45585047 537.68763938 -143.0625 541.5625 C-146.03085131 543.76482517 -148.42161914 543.39036882 -152 543 C-152.66 542.34 -153.32 541.68 -154 541 C-153.85691406 542.35931641 -153.85691406 542.35931641 -153.7109375 543.74609375 C-152.186854 560.49329035 -152.186854 560.49329035 -156.6953125 566.11328125 C-157.95942092 567.47206986 -159.23641859 568.81900627 -160.52734375 570.15234375 C-162.59672166 572.748672 -162.21951256 574.78048245 -162 578 C-163.8125 580.375 -163.8125 580.375 -166 582 C-166.99 582 -167.98 582 -169 582 C-169.226875 581.236875 -169.45375 580.47375 -169.6875 579.6875 C-171.32002096 576.34471899 -172.64002581 575.52726099 -176 574 C-179.19395026 573.28598768 -179.19395026 573.28598768 -182 573 C-181.09569584 575.37696285 -181.09569584 575.37696285 -177.8125 576.1875 C-173.38527276 577.9766475 -170.55533132 581.01265415 -168 585 C-164.45867995 596.18198634 -170.24355401 606.81095772 -175.125 616.6875 C-175.47369141 617.39511475 -175.82238281 618.10272949 -176.18164062 618.83178711 C-178.74655531 623.87327766 -178.74655531 623.87327766 -181 625 C-182.55205639 621.37205389 -184.10019506 617.74246368 -185.64477539 614.11132812 C-186.42844607 612.27125875 -187.21518206 610.43249586 -188.00195312 608.59375 C-188.74155273 606.85351562 -188.74155273 606.85351562 -189.49609375 605.078125 C-189.95169678 604.00981445 -190.4072998 602.94150391 -190.87670898 601.84082031 C-192.76854992 597.05632539 -193.35762403 593.18554847 -193 588 C-191.5625 584.6875 -191.5625 584.6875 -190 582 C-189.67 581.34 -189.34 580.68 -189 580 C-189.91871411 578.00012128 -189.91871411 578.00012128 -191.3515625 575.81640625 C-191.87129639 574.9764209 -192.39103027 574.13643555 -192.92651367 573.27099609 C-193.48701416 572.37719238 -194.04751465 571.48338867 -194.625 570.5625 C-207.29694806 549.83860408 -207.29694806 549.83860408 -207 539 C-206.67 538.34 -206.34 537.68 -206 537 C-207.65 537 -209.3 537 -211 537 C-211.99 535.02 -212.98 533.04 -214 531 C-218.47883696 531.44703986 -218.47883696 531.44703986 -222 534 C-222.6425235 536.06874034 -222.6425235 536.06874034 -223 538 C-226.16115776 536.63016497 -226.9927092 536.0109362 -229 533 C-229.165 531.948125 -229.33 530.89625 -229.5 529.8125 C-230.77237747 525.05102492 -234.42774243 523.05651074 -238.2109375 520.2109375 C-253.17869199 508.34574276 -259.7484547 492.43833617 -264.9375 474.6875 C-265.65410232 472.29409158 -266.37548132 469.90218833 -267.09925842 467.51094055 C-267.54300363 466.03902934 -267.98171648 464.56558927 -268.41477966 463.09049988 C-269.20197119 459.77622279 -269.20197119 459.77622279 -271 457 C-271.268125 457.639375 -271.53625 458.27875 -271.8125 458.9375 C-273 461 -273 461 -276 462 C-273.69 462.33 -271.38 462.66 -269 463 C-270.51402255 466.19626983 -271.56503701 467.75722996 -274.6875 469.5 C-279.15620527 470.17452155 -282.08291844 469.14445083 -286 467 C-288.34602353 465.09385588 -288.88341375 463.88772102 -289.2734375 460.91796875 C-289.47966789 456.13501012 -289.14267212 452.81610186 -286 449 C-281.95683662 445.46223205 -278.4345773 444.70224886 -273.0625 444.78125 C-268.79565924 445.23379372 -265.87650343 446.97741267 -263.125 450.1875 C-262.75375 450.785625 -262.3825 451.38375 -262 452 C-260.28322447 449.23394361 -260.28322447 449.23394361 -259 446 C-260.59710798 441.49103769 -264.03910386 438.51744592 -268 436 C-272.42967626 435.78906304 -274.72884654 438.24534446 -278 441 C-283.59808214 442.86602738 -289.67262638 442.85898614 -295.125 440.5 C-296.548125 439.7575 -296.548125 439.7575 -298 439 C-298 438.34 -298 437.68 -298 437 C-297.01 437 -296.02 437 -295 437 C-295 436.34 -295 435.68 -295 435 C-295.74765625 435.04640625 -296.4953125 435.0928125 -297.265625 435.140625 C-305.40994854 435.43910806 -305.40994854 435.43910806 -308.6875 433 C-309.120625 432.34 -309.55375 431.68 -310 431 C-309.34 430.01 -308.68 429.02 -308 428 C-309.2375 427.5875 -310.475 427.175 -311.75 426.75 C-315.29700037 425.42301937 -317.63354994 424.05666466 -320 421 C-320 420.34 -320 419.68 -320 419 C-318.68 418.67 -317.36 418.34 -316 418 C-316.7425 417.505 -317.485 417.01 -318.25 416.5 C-321.65862674 413.40124842 -323.18726063 410.17233866 -325 406 C-320.28400182 405.07529447 -317.32734391 404.77076223 -313 407 C-312.82984375 406.36191406 -312.6596875 405.72382813 -312.484375 405.06640625 C-312.12085938 403.82697266 -312.12085938 403.82697266 -311.75 402.5625 C-311.51796875 401.73878906 -311.2859375 400.91507812 -311.046875 400.06640625 C-310 398 -310 398 -307.890625 397.21484375 C-307.26671875 397.14394531 -306.6428125 397.07304687 -306 397 C-305.38125 398.4540625 -305.38125 398.4540625 -304.75 399.9375 C-303.31312366 403.00662195 -303.31312366 403.00662195 -301.125 404.1875 C-297.66175921 403.88191993 -296.20070038 401.50635321 -294 399 C-294.39832031 398.35933594 -294.79664063 397.71867187 -295.20703125 397.05859375 C-303.53443627 383.46324395 -306.40620037 369.86705839 -303.63525391 353.89794922 C-302.44719891 349.1419416 -300.71086687 345.0663003 -298 341 C-292.84535266 341.48324819 -289.18449681 344.18610761 -285 347 C-285.2165625 347.71542969 -285.433125 348.43085938 -285.65625 349.16796875 C-289.41888424 362.63332183 -289.30690503 374.5724393 -282.33984375 386.94921875 C-277.70526472 393.92487876 -272.32970707 398.05219821 -265 402 C-264.94465088 401.34926514 -264.88930176 400.69853027 -264.83227539 400.02807617 C-264.57946307 397.08087901 -264.32104674 394.1341994 -264.0625 391.1875 C-263.97548828 390.16333984 -263.88847656 389.13917969 -263.79882812 388.08398438 C-263.71181641 387.10107422 -263.62480469 386.11816406 -263.53515625 385.10546875 C-263.456604 384.19949951 -263.37805176 383.29353027 -263.29711914 382.36010742 C-263 380 -263 380 -262 377 C-263.17949219 376.66548828 -263.17949219 376.66548828 -264.3828125 376.32421875 C-269.1461674 374.58039876 -273.44932266 372.2752828 -277.875 369.8125 C-278.75414062 369.35552734 -279.63328125 368.89855469 -280.5390625 368.42773438 C-282.9230967 367.09319349 -284.99337774 365.85545827 -287 364 C-287.89426969 358.88831027 -286.5746478 354.82235888 -285 350 C-281.0744513 350.59050688 -278.2271302 351.78735626 -274.796875 353.765625 C-273.81589844 354.32636719 -272.83492187 354.88710938 -271.82421875 355.46484375 C-270.30248047 356.34849609 -270.30248047 356.34849609 -268.75 357.25 C-266.74493675 358.40129438 -264.7397303 359.55233941 -262.734375 360.703125 C-261.29094727 361.53553711 -261.29094727 361.53553711 -259.81835938 362.38476562 C-255.90093341 364.62988778 -251.95531087 366.82246853 -248 369 C-248.52271216 381.40753593 -249.4831844 393.67403248 -251 406 C-237.50643002 404.44491207 -237.50643002 404.44491207 -226 398 C-228.31 396.68 -230.62 395.36 -233 394 C-233.02693575 391.87506859 -233.04636628 389.75004088 -233.0625 387.625 C-233.07410156 386.44164062 -233.08570313 385.25828125 -233.09765625 384.0390625 C-233 381 -233 381 -232 379 C-228.10391502 380.48904175 -224.40902982 382.24378713 -220.6875 384.125 C-219.08455078 384.93324219 -219.08455078 384.93324219 -217.44921875 385.7578125 C-216.23685547 386.37269531 -216.23685547 386.37269531 -215 387 C-214.18082358 385.27398621 -213.36993984 383.5440353 -212.5625 381.8125 C-212.11003906 380.84957031 -211.65757812 379.88664062 -211.19140625 378.89453125 C-207.72017962 370.46115769 -208.04105195 361.02532973 -210.96875 352.47265625 C-213.81148606 345.65655047 -216.9329682 340.64402385 -222.875 336.1875 C-225.88154101 333.71657806 -226.87705084 332.61921668 -227.64453125 328.75390625 C-227.70670651 323.68379601 -227.6382525 319.43657156 -225 315 C-211.07801044 322.55341987 -200.61859611 332.19120773 -195.6875 347.5625 C-194.34813931 352.32404077 -193.31322211 357.08359873 -192.58984375 361.9765625 C-192.17069605 364.08189126 -192.17069605 364.08189126 -190.52734375 365.30859375 C-188.16500291 367.92468987 -188.10578253 371.06375332 -187.625 374.4375 C-186.4230442 381.86069783 -184.17291959 388.13963332 -181 395 C-177.37 395.33 -173.74 395.66 -170 396 C-169.40590332 394.12030518 -169.40590332 394.12030518 -168.79980469 392.20263672 C-166.92119374 386.57626134 -164.58709733 381.1854417 -162.203125 375.7578125 C-161.73791946 374.68999039 -161.27271393 373.62216827 -160.79341125 372.52198792 C-159.798677 370.23971377 -158.80223616 367.95818281 -157.80422974 365.67733765 C-155.69580776 360.85834172 -153.59603313 356.03559481 -151.49586487 351.21299744 C-150.44568242 348.80157608 -149.39509577 346.39033071 -148.34410095 343.97926331 C-144.38525402 334.8954192 -140.45730708 325.79896064 -136.5625 316.6875 C-135.98732176 315.34309166 -135.41212615 313.99869074 -134.83691406 312.65429688 C-133.60315629 309.76991697 -132.37000961 306.88527657 -131.13720703 304.00048828 C-126.59562861 293.37354631 -122.049314 282.74863259 -117.5 272.125 C-116.9915152 270.93752167 -116.4830304 269.75004333 -115.95913696 268.52658081 C-107.37169838 248.47826088 -98.71673473 228.45981082 -90.01367188 208.46142578 C-83.28608773 192.99826365 -76.63058361 177.5049831 -70 162 C-69.05748967 159.79669716 -68.11494476 157.59340912 -67.17236328 155.39013672 C-66.48227425 153.77705879 -66.48227425 153.77705879 -65.77824402 152.13139343 C-54.27170421 125.23653633 -42.71121092 98.36713632 -31.04736328 71.54003906 C-25.20528921 58.10038276 -19.4035462 44.64439928 -13.64642334 31.16815186 C-9.18939488 20.73741407 -4.66918228 10.33783808 0 0 Z M-293 400 C-291.44499019 403.81684226 -288.96404505 406.19195732 -286 409 C-285.34 408.67 -284.68 408.34 -284 408 C-285.3094668 406.66368764 -286.62265485 405.33102075 -287.9375 404 C-288.66839844 403.2575 -289.39929688 402.515 -290.15234375 401.75 C-291.69686153 399.88539008 -291.69686153 399.88539008 -293 400 Z M-212 406 C-212 406.66 -212 407.32 -212 408 C-212.515625 408.24878906 -213.03125 408.49757813 -213.5625 408.75390625 C-215.46672766 409.72738161 -217.33527651 410.77072945 -219.1875 411.83984375 C-229.8627164 417.81207203 -239.89352334 419.80919902 -252 421 C-253.09368064 429.04003067 -253.14784377 434.94624995 -249.9375 442.5 C-246.69988053 445.0065441 -242.94190466 444.29750224 -239 444 C-239.66 444.721875 -240.32 445.44375 -241 446.1875 C-246.61099406 454.88454079 -242.33652337 469.1291839 -240.33203125 478.5546875 C-237.76385787 489.62215062 -234.14669397 503.63489601 -226 512 C-223.91670583 513.21201234 -223.91670583 513.21201234 -222 514 C-221.62875 513.505 -221.2575 513.01 -220.875 512.5 C-218.25305607 510.40244486 -216.26157528 510.78256165 -213 511 C-213 513 -213 515 -213 517 C-210.75815175 519.41682177 -209.31314306 519.95786202 -206.0390625 520.3984375 C-187.23014393 520.26931449 -171.90523276 514.74039651 -158 502 C-158 501.01 -158 500.02 -158 499 C-163.99287894 499.29964395 -167.72786241 502.04600032 -172 506 C-173.57069278 507.94362263 -174.75481492 509.8209261 -176 512 C-176.99 510.35 -177.98 508.7 -179 507 C-180.32 507.33 -181.64 507.66 -183 508 C-181.515 508.99 -181.515 508.99 -180 510 C-180 511.32 -180 512.64 -180 514 C-182.375 514.1875 -182.375 514.1875 -185 514 C-185.66 513.01 -186.32 512.02 -187 511 C-189.97675459 514.09327895 -189.97675459 514.09327895 -191 518 C-191.66 518 -192.32 518 -193 518 C-192.15268288 510.18423002 -190.54747884 503.8033374 -185 498 C-182.12828226 495.99963544 -179.19786366 494.41416637 -176 493 C-176.33 492.13375 -176.66 491.2675 -177 490.375 C-178.03246149 486.89044246 -178.53528072 484.59402767 -178 481 C-175.44975635 477.89835231 -173.82300753 476.27433584 -170 475 C-170.0825 475.9075 -170.165 476.815 -170.25 477.75 C-170.29000864 481.0327558 -170.29000864 481.0327558 -168.3125 483.25 C-162.94550369 487.31151072 -157.58499142 487.84558477 -151 487 C-145.12538084 484.17147966 -142.11363066 480.04866265 -139.8984375 473.984375 C-138.55478085 469.06822584 -138.78512434 464.11973444 -138.875 459.0625 C-138.88402344 458.09248047 -138.89304687 457.12246094 -138.90234375 456.12304688 C-138.92573893 453.74843593 -138.95851824 451.37435224 -139 449 C-139.73605469 449.03480469 -140.47210938 449.06960938 -141.23046875 449.10546875 C-145.34754275 449.21968084 -149.02868167 449.28330118 -153 448.125 C-156.20938552 444.71502789 -156.96502696 440.48488316 -158 436 C-159.98491642 436.26676204 -159.98491642 436.26676204 -162 437 C-162.33 437.99 -162.66 438.98 -163 440 C-165.97 439.67 -168.94 439.34 -172 439 C-171.95359375 438.25234375 -171.9071875 437.5046875 -171.859375 436.734375 C-171.82328125 435.74953125 -171.7871875 434.7646875 -171.75 433.75 C-171.70359375 432.77546875 -171.6571875 431.8009375 -171.609375 430.796875 C-172.118322 427.15281447 -173.22804688 426.37989097 -176 424 C-178.14584561 422.73981814 -180.33839695 421.55762129 -182.55859375 420.43359375 C-183.18476089 420.11342789 -183.81092804 419.79326202 -184.45606995 419.46339417 C-186.44625962 418.44745182 -188.44156496 417.44210054 -190.4375 416.4375 C-192.42875369 415.42727594 -194.41886965 414.41486404 -196.40821838 413.40089417 C-198.21473877 412.48136639 -200.02416355 411.56755121 -201.83374023 410.65405273 C-203.85627986 409.59747891 -205.84848837 408.47915971 -207.79321289 407.28540039 C-209.86239161 405.83222729 -209.86239161 405.83222729 -212 406 Z M-284 409 C-283.67 409.66 -283.34 410.32 -283 411 C-282.34 410.67 -281.68 410.34 -281 410 C-281.99 409.67 -282.98 409.34 -284 409 Z M-171 409 C-171.66 410.32 -172.32 411.64 -173 413 C-172.34 413.66 -171.68 414.32 -171 415 C-168.89179203 414.6814823 -168.89179203 414.6814823 -167 414 C-167.33 412.35 -167.66 410.7 -168 409 C-168.99 409 -169.98 409 -171 409 Z M-151 417 C-151.66 417.66 -152.32 418.32 -153 419 C-152.6814823 421.10820797 -152.6814823 421.10820797 -152 423 C-150.35 422.67 -148.7 422.34 -147 422 C-147.26676204 420.01508358 -147.26676204 420.01508358 -148 418 C-148.99 417.67 -149.98 417.34 -151 417 Z M-161 427 C-160.34 427.37125 -159.68 427.7425 -159 428.125 C-158.34 428.74375 -157.68 429.3625 -157 430 C-157.020625 430.969375 -157.04125 431.93875 -157.0625 432.9375 C-157.3347527 436.14740996 -157.3347527 436.14740996 -154.875 438.3125 C-151.81717094 440.10731271 -149.50694059 440.67377297 -146 441 C-145.34 439.35 -144.68 437.7 -144 436 C-145.24517965 434.86966702 -146.49636652 433.74594964 -147.75 432.625 C-148.44609375 431.99851562 -149.1421875 431.37203125 -149.859375 430.7265625 C-153.61241669 427.69947413 -156.16950221 426.73163901 -161 427 Z M-164 429 C-164 432 -164 432 -164 432 Z M-137 431 C-137.33 432.65 -137.66 434.3 -138 436 C-136.68 436.33 -135.36 436.66 -134 437 C-133.34 435.68 -132.68 434.36 -132 433 C-132.66 432.34 -133.32 431.68 -134 431 C-134.99 431 -135.98 431 -137 431 Z M-255 453 C-256.22264969 463.17811015 -256.22264969 463.17811015 -254 473 C-251.31273442 470.8971941 -251.31273442 470.8971941 -249 468 C-248.87856114 462.65669015 -251.73364002 457.74354415 -254 453 C-254.33 453 -254.66 453 -255 453 Z M-131 453 C-131.33 454.65 -131.66 456.3 -132 458 C-130.68 458.33 -129.36 458.66 -128 459 C-127.34 457.68 -126.68 456.36 -126 455 C-126.66 454.34 -127.32 453.68 -128 453 C-128.99 453 -129.98 453 -131 453 Z M-280 456 C-279 459 -279 459 -279 459 Z M-248 471 C-248.06058594 471.71027344 -248.12117188 472.42054688 -248.18359375 473.15234375 C-248.26738281 474.07144531 -248.35117188 474.99054688 -248.4375 475.9375 C-248.51871094 476.85402344 -248.59992188 477.77054687 -248.68359375 478.71484375 C-249 481 -249 481 -250 482 C-249.73353291 488.26197669 -247.5178638 493.81328437 -244 499 C-242.68953081 499.71055804 -241.35748626 500.38400221 -240 501 C-243.06481038 485.89598054 -243.06481038 485.89598054 -247 471 C-247.33 471 -247.66 471 -248 471 Z M-134 476 C-134.33 477.65 -134.66 479.3 -135 481 C-133.68 481.33 -132.36 481.66 -131 482 C-130.34 480.68 -129.68 479.36 -129 478 C-129.66 477.34 -130.32 476.68 -131 476 C-131.99 476 -132.98 476 -134 476 Z M-144 494 C-144.66 494.66 -145.32 495.32 -146 496 C-145.6814823 498.10820797 -145.6814823 498.10820797 -145 500 C-143.35 499.67 -141.7 499.34 -140 499 C-140.26676204 497.01508358 -140.26676204 497.01508358 -141 495 C-141.99 494.67 -142.98 494.34 -144 494 Z M-187.8125 530.5 C-188.85180664 530.71462891 -188.85180664 530.71462891 -189.91210938 530.93359375 C-191.60898724 531.28467193 -193.30462554 531.64173219 -195 532 C-196.23886292 536.14092371 -197.26311551 539.65859407 -197 544 C-196.67 543.34 -196.34 542.68 -196 542 C-193.36 542 -190.72 542 -188 542 C-188.33 540.02 -188.66 538.04 -189 536 C-171.67253615 535.336395 -171.67253615 535.336395 -165.5 540.625 C-164.675 541.40875 -163.85 542.1925 -163 543 C-162.34 543 -161.68 543 -161 543 C-160.67 539.37 -160.34 535.74 -160 532 C-161.98 532.99 -161.98 532.99 -164 534 C-167.80118134 533.8382476 -169.5763955 533.34094996 -172.5625 530.9375 C-177.15404256 527.28781232 -182.43163505 529.35688802 -187.8125 530.5 Z M-155 534 C-154 536 -154 536 -154 536 Z M-156 536 C-155 540 -155 540 -155 540 Z M-180 546 C-180 546.66 -180 547.32 -180 548 C-178.02 548 -176.04 548 -174 548 C-174 546.68 -174 545.36 -174 544 C-176.46278801 544 -177.85224119 544.85452863 -180 546 Z M-196 546 C-196 546.66 -196 547.32 -196 548 C-195.01 547.67 -194.02 547.34 -193 547 C-193.99 546.67 -194.98 546.34 -196 546 Z M-194 551 C-193.67 551.99 -193.34 552.98 -193 554 C-193 553.34 -193 552.68 -193 552 C-192.34 551.67 -191.68 551.34 -191 551 C-191.99 551 -192.98 551 -194 551 Z M-163 553 C-163.33 553.99 -163.66 554.98 -164 556 C-166.58203125 556.87890625 -166.58203125 556.87890625 -169.8125 557.5625 C-173.53824207 558.3657355 -176.63068432 559.23926084 -180 561 C-181.99110401 561.38290462 -183.99100513 561.72604615 -186 562 C-185.34 560.35 -184.68 558.7 -184 557 C-184.66 556.34 -185.32 555.68 -186 555 C-187.98 555.66 -189.96 556.32 -192 557 C-190.09755718 560.51951921 -188.50762717 562.99564162 -185 565 C-181.32635874 566.09427612 -179.66961306 566.29113611 -176.125 564.75 C-175.42375 564.1725 -174.7225 563.595 -174 563 C-174 562.01 -174 561.02 -174 560 C-173.236875 560.309375 -172.47375 560.61875 -171.6875 560.9375 C-169.81210323 561.67893593 -167.91315348 562.36228217 -166 563 C-163.2027092 560.93243723 -162.97307727 559.85559629 -162.3125 556.3125 C-162.209375 555.219375 -162.10625 554.12625 -162 553 C-162.33 553 -162.66 553 -163 553 Z M-181 589 C-181 592.63 -181 596.26 -181 600 C-180.34 600 -179.68 600 -179 600 C-179.33 596.37 -179.66 592.74 -180 589 C-180.33 589 -180.66 589 -181 589 Z " fill="#070707" transform="translate(397,1)"/>
<path d="M0 0 C0.66 0 1.32 0 2 0 C9.12449556 15.27466868 15.95304042 30.66884485 22.70404053 46.11117554 C29.47592739 61.59580213 36.3727855 77.02141743 43.33813477 92.41992188 C43.70375015 93.22898987 44.06936554 94.03805786 44.44606018 94.87164307 C45.12587157 96.3754936 45.80665663 97.87890456 46.4886322 99.3817749 C47.3337976 101.25090068 48.1674459 103.12522284 49 105 C49.4228125 105.84143555 49.845625 106.68287109 50.28125 107.54980469 C52.05768555 113.60561554 49.20471147 119.83284886 47.12890625 125.5234375 C46.84651596 126.31021881 46.56412567 127.09700012 46.2731781 127.90762329 C45.67886309 129.55762229 45.08115779 131.20640372 44.48022461 132.85400391 C43.5589753 135.38468238 42.65291688 137.92045656 41.74804688 140.45703125 C41.16756703 142.06282576 40.58621776 143.6683063 40.00390625 145.2734375 C39.73300674 146.03377289 39.46210724 146.79410828 39.18299866 147.57748413 C37.22980976 152.88509512 37.22980976 152.88509512 35 154 C34.01 150.37 33.02 146.74 32 143 C29.69 143.33 27.38 143.66 25 144 C25.33 145.051875 25.66 146.10375 26 147.1875 C26.83966782 150.38873357 27.19750904 152.7411008 27 156 C27.66 155.67 28.32 155.34 29 155 C32 154.75 32 154.75 35 155 C35.66 155.99 36.32 156.98 37 158 C37.40726318 156.85861572 37.81452637 155.71723145 38.23413086 154.54125977 C39.44835845 151.13848669 40.66294627 147.73584239 41.87768555 144.33325195 C43.25635081 140.47142982 44.6339756 136.60923854 46.01098633 132.74682617 C48.93615864 124.54618066 51.86163761 116.34632188 54.859375 108.171875 C65.85646531 78.17055557 69.08051752 56.61709655 56.64257812 26.57519531 C56.30162109 25.75116211 55.96066406 24.92712891 55.609375 24.078125 C55.29967773 23.33981445 54.98998047 22.60150391 54.67089844 21.84082031 C54 20 54 20 54 18 C68.96207737 24.97782981 79.86415807 38.74887706 86.125 53.68359375 C88.49657381 60.44485948 89.21804468 67.16538049 89.3125 74.3125 C89.34150391 75.00150391 89.37050781 75.69050781 89.40039062 76.40039062 C89.59117971 93.02839299 82.26027493 109.836194 77 125.3125 C76.2377505 127.57387632 75.47628457 129.83551691 74.71557617 132.09741211 C73.19584341 136.61364418 71.67249435 141.12862848 70.14599609 145.64257812 C67.42219456 153.70271756 64.73324999 161.77434482 62.04907227 169.8477478 C61.34408169 171.96753904 60.63812484 174.08700497 59.93164062 176.20629883 C59.7124295 176.8653421 59.49321838 177.52438538 59.2673645 178.20339966 C58.83648676 179.49241426 58.40190308 180.7801969 57.96334839 182.06661987 C56.75622801 185.62557993 55.64919833 189.19289193 54.62744141 192.80981445 C50.64200394 206.5168863 50.64200394 206.5168863 46.046875 209.41015625 C43.93530273 210.32348633 43.93530273 210.32348633 41.75 211.0625 C40.23093338 211.72357981 38.71654039 212.39550353 37.20703125 213.078125 C36.48209473 213.39330078 35.7571582 213.70847656 35.01025391 214.03320312 C24.73554824 218.97464525 17.74419286 230.01347403 13 240 C9.75109251 237.08054827 8.1032873 234.51598189 6.46875 230.48046875 C5.76347168 228.76645874 5.76347168 228.76645874 5.04394531 227.01782227 C4.79439087 226.39851837 4.54483643 225.77921448 4.28771973 225.1411438 C3.18520685 222.40677346 2.05957738 219.68209383 0.93536377 216.95658875 C0.31155764 215.44408966 -0.31116965 213.93114526 -0.93292236 212.4178009 C-4.69860704 203.26502691 -8.58710918 194.16480949 -12.47158813 185.0619812 C-13.7528471 182.05581998 -15.02972577 179.04783313 -16.30541992 176.03930664 C-20.10451268 167.08716676 -23.92010399 158.14465814 -27.8465271 149.2474823 C-29.46424049 145.578812 -31.06755003 141.90393038 -32.6697998 138.22848511 C-33.42359176 136.51107388 -34.18475737 134.79687767 -34.95373535 133.08621216 C-36.01517087 130.72405237 -37.05091738 128.35208118 -38.08203125 125.9765625 C-38.39552017 125.29735245 -38.70900909 124.6181424 -39.03199768 123.91835022 C-41.63290763 117.80484139 -41.02535772 112.62632971 -39.24389648 106.32592773 C-38.95587158 105.61895752 -38.66784668 104.9119873 -38.37109375 104.18359375 C-38.05849609 103.40048828 -37.74589844 102.61738281 -37.42382812 101.81054688 C-37.09833984 101.02744141 -36.77285156 100.24433594 -36.4375 99.4375 C-36.10814453 98.61958984 -35.77878906 97.80167969 -35.43945312 96.95898438 C-34.63631085 94.9685883 -33.81958033 92.98368398 -33 91 C-29.87362036 93.89679551 -28.42419953 97.11600311 -26.8125 101 C-26.40354492 101.94359375 -26.40354492 101.94359375 -25.98632812 102.90625 C-24.77503463 105.7720672 -24 107.85703523 -24 111 C-23.34 111 -22.68 111 -22 111 C-21.67 109.68 -21.34 108.36 -21 107 C-16.25 105.875 -16.25 105.875 -14 107 C-13.1875 109.375 -13.1875 109.375 -13 112 C-14.125 113.8125 -14.125 113.8125 -16 115 C-17.66599691 115.04724469 -19.33414122 115.0518874 -21 115 C-20.71125 115.68707031 -20.4225 116.37414062 -20.125 117.08203125 C-19.75375 117.98308594 -19.3825 118.88414063 -19 119.8125 C-18.62875 120.70582031 -18.2575 121.59914063 -17.875 122.51953125 C-17 125 -17 125 -17 128 C-16.34 128 -15.68 128 -15 128 C-14.67 126.68 -14.34 125.36 -14 124 C-11.6875 123.3125 -11.6875 123.3125 -9 123 C-7.125 124.125 -7.125 124.125 -6 126 C-6.42105263 130.42105263 -6.42105263 130.42105263 -8 132 C-9.98 132 -11.96 132 -14 132 C-12.02 136.62 -10.04 141.24 -8 146 C-7.34 144.68 -6.68 143.36 -6 142 C-4.0625 141.125 -4.0625 141.125 -2 141 C-1.01 141.66 -0.02 142.32 1 143 C1.1875 146.125 1.1875 146.125 1 149 C-2.465 149.99 -2.465 149.99 -6 151 C-5.45859375 152.26457031 -5.45859375 152.26457031 -4.90625 153.5546875 C-4.4421875 154.65039062 -3.978125 155.74609375 -3.5 156.875 C-3.0359375 157.96554688 -2.571875 159.05609375 -2.09375 160.1796875 C-1 163 -1 163 -1 165 C-0.34 165 0.32 165 1 165 C1.33 163.35 1.66 161.7 2 160 C4.375 159.875 4.375 159.875 7 160 C9 162 9 162 9.125 164.625 C9.08375 165.40875 9.0425 166.1925 9 167 C8.21625 167.309375 7.4325 167.61875 6.625 167.9375 C4.07669872 168.92875038 4.07669872 168.92875038 2 170 C3.65 173.63 5.3 177.26 7 181 C7.66 180.34 8.32 179.68 9 179 C11.5 178.75 11.5 178.75 14 179 C16 181 16 181 16.125 183.625 C16.08375 184.40875 16.0425 185.1925 16 186 C13.625 187.0625 13.625 187.0625 11 188 C10.34 187.67 9.68 187.34 9 187 C9.33 188.19625 9.66 189.3925 10 190.625 C10.89265823 194.15791497 11.18296045 197.34079109 11 201 C11.99 200.34 12.98 199.68 14 199 C16.5 198.6875 16.5 198.6875 19 199 C20.65625 200.51953125 20.65625 200.51953125 22 202 C23.85333978 196.60719075 25.70470097 191.21370802 27.55419922 185.81958008 C28.18418359 183.98312847 28.81471654 182.14686495 29.44580078 180.31079102 C30.35071423 177.67773437 31.25367844 175.04401643 32.15625 172.41015625 C32.44060913 171.58411392 32.72496826 170.75807159 33.01794434 169.90699768 C34.39119394 166.52493942 34.39119394 166.52493942 35 163 C33.02 163 31.04 163 29 163 C29.05220703 163.90878906 29.05220703 163.90878906 29.10546875 164.8359375 C29.31318794 171.26534108 28.64233594 177.07377329 26 183 C25.02335619 184.02282299 24.02590718 185.02659646 23 186 C18.66123336 177.87933403 15.20883046 169.44239437 11.75640869 160.9211731 C10.00453715 156.59780403 8.23931453 152.27987883 6.4765625 147.9609375 C6.11090179 147.06393631 5.74524109 146.16693512 5.36849976 145.24275208 C1.68404832 136.2096129 -2.04659918 127.1958601 -5.78704834 118.18579102 C-6.86832709 115.57858984 -7.94649108 112.97011992 -9.02392578 110.36132812 C-12.06636004 103.00296047 -15.12798763 95.65856537 -18.328125 88.3671875 C-18.80910645 87.25915771 -19.29008789 86.15112793 -19.78564453 85.00952148 C-20.64045738 83.04887436 -21.50980488 81.09445701 -22.39794922 79.14868164 C-26.19269037 70.39974148 -24.43963206 64.22140249 -21.1875 55.5625 C-20.93935547 54.84384766 -20.69121094 54.12519531 -20.43554688 53.38476562 C-19.66796875 51.31640625 -19.66796875 51.31640625 -18 48 C-15.92578125 47.15234375 -15.92578125 47.15234375 -14 47 C-13.34 46.34 -12.68 45.68 -12 45 C-8.875 45.375 -8.875 45.375 -6 46 C-6.32226562 45.04480469 -6.64453125 44.08960938 -6.9765625 43.10546875 C-8.27957559 38.5149421 -8.38402563 34.06133631 -8.375 29.3125 C-8.37258301 27.98955933 -8.37258301 27.98955933 -8.37011719 26.63989258 C-8.18280286 16.6231669 -5.35871553 8.4208387 0 0 Z M-6 50 C-6 50.99 -6 51.98 -6 53 C-8.31 53 -10.62 53 -13 53 C-12.34580901 58.06998019 -10.1453591 62.41990777 -8 67 C-7.56042969 66.51917969 -7.12085938 66.03835937 -6.66796875 65.54296875 C-4.54616701 63.58017791 -2.81866616 63.38090083 0 63 C-0.45445964 61.58208592 -0.91374944 60.16571954 -1.375 58.75 C-1.63023438 57.96109375 -1.88546875 57.1721875 -2.1484375 56.359375 C-2.95173667 54.13372042 -3.89711662 52.09068328 -5 50 C-5.33 50 -5.66 50 -6 50 Z M1 68 C0.67 68.66 0.34 69.32 0 70 C-3.0625 70.625 -3.0625 70.625 -6 71 C-4.25192871 76.46737191 -2.34205919 81.75824848 0 87 C0.66 85.68 1.32 84.36 2 83 C4.31 83 6.62 83 9 83 C7.40109514 77.80355921 5.25861997 72.93387858 3 68 C2.34 68 1.68 68 1 68 Z M10 86 C9.79375 86.639375 9.5875 87.27875 9.375 87.9375 C8.92125 88.618125 8.4675 89.29875 8 90 C6.02 90.33 4.04 90.66 2 91 C3.65 94.96 5.3 98.92 7 103 C8.32 101.68 9.64 100.36 11 99 C13.75 99.25 13.75 99.25 16 100 C15.34580901 94.93001981 13.1453591 90.58009223 11 86 C10.67 86 10.34 86 10 86 Z M16 100 C17 102 17 102 17 102 Z M17 102 C16.34 103.32 15.68 104.64 15 106 C13.02 106 11.04 106 9 106 C9.60355408 109.85025879 10.76772603 112.86101159 12.5625 116.3125 C13.01753906 117.19550781 13.47257812 118.07851562 13.94140625 118.98828125 C14.29074219 119.65214844 14.64007813 120.31601563 15 121 C15.33 120.01 15.66 119.02 16 118 C21.75 117.875 21.75 117.875 24 119 C22.13236819 113.27789404 20.14710968 107.62338249 18 102 C17.67 102 17.34 102 17 102 Z M24 120 C23.34 121.65 22.68 123.3 22 125 C20.35 125 18.7 125 17 125 C18.54269924 129.72065967 20.07794619 134.41664092 22 139 C22.99 138.34 23.98 137.68 25 137 C26.65549531 136.61500109 28.3222433 136.27206865 30 136 C28.90301833 130.30860098 27.45946923 125.25432063 25 120 C24.67 120 24.34 120 24 120 Z M20 206 C17.69 206.33 15.38 206.66 13 207 C13 214.26 13 221.52 13 229 C15.54661734 225.18007399 16.74731218 221.27161817 18.1875 216.9375 C18.47302734 216.10927734 18.75855469 215.28105469 19.05273438 214.42773438 C19.31763672 213.63560547 19.58253906 212.84347656 19.85546875 212.02734375 C20.09934326 211.30281006 20.34321777 210.57827637 20.59448242 209.83178711 C21.22039146 207.91580957 21.22039146 207.91580957 20 206 Z M12 231 C13 233 13 233 13 233 Z " fill="#0B0B0B" transform="translate(41,0)"/>
<path d="M0 0 C4.35665202 1.42081805 6.99886975 3.55609543 10.3125 6.6875 C13.47331472 9.6552596 16.64719517 12.56112614 20 15.3125 C36.747731 29.96676462 48.81284117 50.70851409 51 73 C52.80886595 100.29090614 46.04217198 123.44640324 36.29248047 148.62182617 C24.98235141 177.86309499 15.59606882 207.85639736 7 238 C5.02 237.34 3.04 236.68 1 236 C1.10699219 234.87464844 1.21398437 233.74929688 1.32421875 232.58984375 C2.58612545 217.41703669 1.2205647 204.3056573 -7 191 C-7.76441406 190.24976563 -8.52882812 189.49953125 -9.31640625 188.7265625 C-11 186 -11 186 -10.83032227 184.10610962 C-10.65170654 183.38998505 -10.47309082 182.67386047 -10.2890625 181.93603516 C-9.99039024 180.73380814 -9.99039024 180.73380814 -9.6856842 179.5072937 C-8.56456283 175.4077672 -7.33947092 171.34911819 -6.05859375 167.296875 C-5.77487915 166.38912827 -5.49116455 165.48138153 -5.19885254 164.54612732 C-4.59395111 162.61223239 -3.98741636 160.6788477 -3.37936401 158.74594116 C-2.42573649 155.71258188 -1.47790173 152.67746474 -0.53149414 149.6418457 C2.19763636 140.89557181 4.94061027 132.1544417 7.75 123.43359375 C20.4765561 83.7565309 22.71219805 52.66501129 6 14 C5.38305475 12.54602216 4.76712125 11.09161449 4.15234375 9.63671875 C2.78674312 6.41631785 1.40095318 3.20521106 0 0 Z " fill="#0A0A0A" transform="translate(162,40)"/>
<path d="M0 0 C3.7602985 0.58107632 6.53035032 1.65199496 9.8125 3.5625 C10.60269531 4.01753906 11.39289063 4.47257813 12.20703125 4.94140625 C12.79871094 5.29074219 13.39039062 5.64007813 14 6 C13.7834375 6.52464844 13.566875 7.04929688 13.34375 7.58984375 C9.48646987 18.32236856 9.17679348 31.09304367 13.7421875 41.64453125 C18.07589968 49.76014754 24.51963343 57.11787664 33 61 C34.67647437 59.32352563 34.34638077 57.17415464 34.53515625 54.87109375 C34.61386963 53.93966553 34.69258301 53.0082373 34.77368164 52.04858398 C34.8689917 50.85692627 34.96430176 49.66526855 35.0625 48.4375 C35.371875 44.663125 35.68125 40.88875 36 37 C27.75 32.38 19.5 27.76 11 23 C12.125 12.875 12.125 12.875 14 9 C19.98883793 10.61887327 25.00234519 13.704575 30.3125 16.8125 C32.12079974 17.86118422 33.92939099 18.90936596 35.73828125 19.95703125 C36.61178223 20.46443848 37.4852832 20.9718457 38.38525391 21.49462891 C42.23150773 23.70900809 46.11137429 25.86110687 50 28 C50.38747372 40.42068542 49.20013125 52.65077713 48 65 C56.95919424 64.13506338 64.24547762 62.68130153 72 58 C69.702779 56.25728062 67.40133271 54.60088848 65 53 C65.33 48.05 65.66 43.1 66 38 C69.77438905 39.50975562 73.0681849 41.05090627 76.59765625 43.00390625 C77.64630859 43.57947266 78.69496094 44.15503906 79.77539062 44.74804688 C81.97144394 45.96024743 84.16675413 47.17379521 86.36132812 48.38867188 C87.40869141 48.96294922 88.45605469 49.53722656 89.53515625 50.12890625 C90.487854 50.65556885 91.44055176 51.18223145 92.42211914 51.72485352 C95.15092476 53.18842256 95.15092476 53.18842256 99 54 C100.65 51.03 102.3 48.06 104 45 C106.97 45.66 109.94 46.32 113 47 C113.10401752 55.4914853 112.84522611 63.86520387 112.16015625 72.328125 C112.07374374 73.44257996 111.98733124 74.55703491 111.89830017 75.70526123 C111.71652066 78.03806586 111.53238028 80.37068766 111.34594727 82.703125 C111.06211429 86.25482652 110.78530327 89.80702119 110.50976562 93.359375 C110.33113454 95.64065678 110.15211164 97.92190792 109.97265625 100.203125 C109.8491555 101.77842987 109.8491555 101.77842987 109.72315979 103.38555908 C109.2514704 109.27192441 108.68466307 115.13450405 108 121 C103.1725201 119.58707905 99.2837641 117.57025846 95 115 C94.85253249 106.86061251 95.30721227 98.85748885 96 90.75 C96.85448574 80.88850259 96.85448574 80.88850259 97 71 C94.03 69.35 91.06 67.7 88 66 C87.40574219 66.44730469 86.81148438 66.89460938 86.19921875 67.35546875 C73.73910843 76.44379183 62.19159106 79.9209711 47 81 C47 83.64 47 86.28 47 89 C48.08099976 89.60473145 48.08099976 89.60473145 49.18383789 90.22167969 C51.88824353 91.73477367 54.59248914 93.24815316 57.29663086 94.76171875 C59.03031499 95.73198743 60.76417924 96.70193427 62.49804688 97.671875 C68.01203616 100.75842294 73.52132214 103.85115177 79 107 C78.67 111.95 78.34 116.9 78 122 C74.45944681 121.1148617 72.11799476 120.12620751 68.95703125 118.41015625 C67.9729126 117.87745117 66.98879395 117.34474609 65.97485352 116.79589844 C64.40948853 115.93786621 64.40948853 115.93786621 62.8125 115.0625 C61.74636475 114.48145508 60.68022949 113.90041016 59.58178711 113.30175781 C34.63920366 99.63920366 34.63920366 99.63920366 32 97 C31.59192458 90.27875782 32.12653995 83.66013292 33 77 C32.45472656 76.85304688 31.90945312 76.70609375 31.34765625 76.5546875 C17.0780668 72.31039935 7.48164824 62.48837863 0 50 C-6.58708741 35.63798975 -7.25782839 19.24156016 -1.97265625 4.37109375 C-1 2 -1 2 0 0 Z " fill="#111111" transform="translate(57,237)"/>
<path d="M0 0 C5.23470988 1.50847556 8.43114567 4.87672696 12.25 8.5625 C12.91386719 9.19510742 13.57773438 9.82771484 14.26171875 10.47949219 C15.58218357 11.74139838 16.89933156 13.00678586 18.21289062 14.27587891 C19.70946931 15.71970933 21.22026071 17.1487883 22.734375 18.57421875 C36.86655829 32.14598788 45.09148489 48.79717071 45.5 68.375 C45.54616455 69.61999268 45.54616455 69.61999268 45.59326172 70.89013672 C45.59446099 77.35778841 44.37101218 83.37683315 42.86962891 89.63037109 C42.64871141 90.55153088 42.42779392 91.47269066 42.20018196 92.42176437 C39.78279757 102.24173765 36.70126125 111.8058651 33.4921875 121.390625 C32.87832304 123.24137334 32.26489837 125.0922676 31.65188599 126.94329834 C30.38213077 130.77020751 29.10578897 134.59483709 27.82470703 138.41796875 C26.18172555 143.32361872 24.55821378 148.23547748 22.93957329 153.14920425 C21.68521236 156.94883091 20.41980015 160.74470465 19.15103531 164.53954315 C18.54688853 166.35167665 17.94646893 168.16505717 17.3498497 169.97968292 C16.52181071 172.49337129 15.67879283 175.00152207 14.83154297 177.50878906 C14.46677353 178.63210129 14.46677353 178.63210129 14.09463501 179.77810669 C13.48614654 181.55209597 12.75360025 183.28262327 12 185 C8.07989227 186.30670258 6.82422112 185.33676236 3.0625 183.75 C-3.20005217 181.2238694 -9.42771664 179.49492235 -16 178 C-13.49763547 168.0377007 -10.25814658 158.30524255 -7.10409546 148.53598022 C-1.78915818 132.05541715 3.43505893 115.54839086 8.46514893 98.97851562 C9.02481611 97.13507683 9.58610536 95.29212962 10.14910889 93.44970703 C15.56934132 76.05097196 15.56934132 76.05097196 17.3125 58 C17.30758545 57.18966309 17.3026709 56.37932617 17.29760742 55.54443359 C16.93521212 36.35420838 11.42347282 20.61803843 1.79296875 4.140625 C0 1 0 1 0 0 Z " fill="#0A0A0A" transform="translate(126,26)"/>
<path d="M0 0 C3.12637964 2.89679551 4.57580047 6.11600311 6.1875 10 C6.46013672 10.6290625 6.73277344 11.258125 7.01367188 11.90625 C8.22496537 14.7720672 9 16.85703523 9 20 C9.66 20 10.32 20 11 20 C11.33 18.68 11.66 17.36 12 16 C16.75 14.875 16.75 14.875 19 16 C19.8125 18.375 19.8125 18.375 20 21 C18.875 22.8125 18.875 22.8125 17 24 C15.33400309 24.04724469 13.66585878 24.0518874 12 24 C12.28875 24.68707031 12.5775 25.37414062 12.875 26.08203125 C13.431875 27.43361328 13.431875 27.43361328 14 28.8125 C14.37125 29.70582031 14.7425 30.59914063 15.125 31.51953125 C16 34 16 34 16 37 C16.66 37 17.32 37 18 37 C18.33 35.68 18.66 34.36 19 33 C21.3125 32.3125 21.3125 32.3125 24 32 C25.875 33.125 25.875 33.125 27 35 C26.57894737 39.42105263 26.57894737 39.42105263 25 41 C23.02 41 21.04 41 19 41 C20.98 45.62 22.96 50.24 25 55 C25.66 53.68 26.32 52.36 27 51 C28.9375 50.125 28.9375 50.125 31 50 C31.99 50.66 32.98 51.32 34 52 C34.1875 55.125 34.1875 55.125 34 58 C31.69 58.66 29.38 59.32 27 60 C27.54140625 61.26457031 27.54140625 61.26457031 28.09375 62.5546875 C28.5578125 63.65039062 29.021875 64.74609375 29.5 65.875 C29.9640625 66.96554688 30.428125 68.05609375 30.90625 69.1796875 C32 72 32 72 32 74 C32.66 74 33.32 74 34 74 C34.33 72.35 34.66 70.7 35 69 C37.375 68.875 37.375 68.875 40 69 C42 71 42 71 42.125 73.625 C42.08375 74.40875 42.0425 75.1925 42 76 C41.21625 76.309375 40.4325 76.61875 39.625 76.9375 C37.07669872 77.92875038 37.07669872 77.92875038 35 79 C36.65 82.63 38.3 86.26 40 90 C40.66 89.34 41.32 88.68 42 88 C44.5 87.75 44.5 87.75 47 88 C49 90 49 90 49.125 92.625 C49.08375 93.40875 49.0425 94.1925 49 95 C46.625 96.0625 46.625 96.0625 44 97 C43.01 96.505 43.01 96.505 42 96 C42.33 97.19625 42.66 98.3925 43 99.625 C43.89265823 103.15791497 44.18296045 106.34079109 44 110 C44.99 109.34 45.98 108.68 47 108 C49.5625 107.75 49.5625 107.75 52 108 C54.5654594 110.5654594 54.54046087 112.47686668 55 116 C48.25 117.125 48.25 117.125 46 116 C46.16371094 116.97066406 46.32742187 117.94132812 46.49609375 118.94140625 C47.11628841 123.28276888 47.11126417 127.55997771 47.0625 131.9375 C47.05798828 132.71673828 47.05347656 133.49597656 47.04882812 134.29882812 C47.03716908 136.19925268 47.01923877 138.09963706 47 140 C46.34 140 45.68 140 45 140 C45.34786708 141.97536745 45.34786708 141.97536745 46 144 C46.66 144.33 47.32 144.66 48 145 C47.34 146.32 46.68 147.64 46 149 C42.75109251 146.08054827 41.1032873 143.51598189 39.46875 139.48046875 C38.76347168 137.76645874 38.76347168 137.76645874 38.04394531 136.01782227 C37.79439087 135.39851837 37.54483643 134.77921448 37.28771973 134.1411438 C36.18520685 131.40677346 35.05957738 128.68209383 33.93536377 125.95658875 C33.31155764 124.44408966 32.68883035 122.93114526 32.06707764 121.4178009 C28.30139296 112.26502691 24.41289082 103.16480949 20.52841187 94.0619812 C19.2471529 91.05581998 17.97027423 88.04783313 16.69458008 85.03930664 C12.89548732 76.08716676 9.07989601 67.14465814 5.1534729 58.2474823 C3.53575951 54.578812 1.93244997 50.90393038 0.3302002 47.22848511 C-0.42359176 45.51107388 -1.18475737 43.79687767 -1.95373535 42.08621216 C-3.01517087 39.72405237 -4.05091738 37.35208118 -5.08203125 34.9765625 C-5.39552017 34.29735245 -5.70900909 33.6181424 -6.03199768 32.91835022 C-8.63290763 26.80484139 -8.02535772 21.62632971 -6.24389648 15.32592773 C-5.95587158 14.61895752 -5.66784668 13.9119873 -5.37109375 13.18359375 C-5.05849609 12.40048828 -4.74589844 11.61738281 -4.42382812 10.81054688 C-4.09833984 10.02744141 -3.77285156 9.24433594 -3.4375 8.4375 C-2.9434668 7.21063477 -2.9434668 7.21063477 -2.43945312 5.95898438 C-1.63631085 3.9685883 -0.81958033 1.98368398 0 0 Z " fill="#141414" transform="translate(8,91)"/>
<path d="M0 0 C1.33333333 0 2.66666667 0 4 0 C4.12375 1.918125 4.12375 1.918125 4.25 3.875 C4.83217653 9.34050801 6.76388948 14.01815378 9 19 C9.42925781 18.51917969 9.85851562 18.03835937 10.30078125 17.54296875 C12.67147053 15.39027388 14.88309778 15.34632247 18 15 C18.66 16.98 19.32 18.96 20 21 C19.34 21 18.68 21 18 21 C17.67 21.99 17.34 22.98 17 24 C15.02 24 13.04 24 11 24 C12.98 28.62 14.96 33.24 17 38 C18.32 37.01 19.64 36.02 21 35 C24.25 34.8125 24.25 34.8125 27 35 C28.15154588 37.82652171 28.07817396 38.81325108 26.875 41.6875 C25 44 25 44 20 45 C21.32 48.3 22.64 51.6 24 55 C24.86625 53.9790625 24.86625 53.9790625 25.75 52.9375 C28 51 28 51 30.125 50.9375 C32 52 32 52 33.375 54.375 C33.58125 55.24125 33.7875 56.1075 34 57 C33.34 57.99 32.68 58.98 32 60 C29.375 60.1875 29.375 60.1875 27 60 C27.45445964 61.41791408 27.91374944 62.83428046 28.375 64.25 C28.63023438 65.03890625 28.88546875 65.8278125 29.1484375 66.640625 C29.95173667 68.86627958 30.89711662 70.90931672 32 73 C32.5259375 72.2265625 32.5259375 72.2265625 33.0625 71.4375 C35 70 35 70 38.6875 70.3125 C39.780625 70.539375 40.87375 70.76625 42 71 C41.34 73.31 40.68 75.62 40 78 C37.525 78.495 37.525 78.495 35 79 C36.65 82.96 38.3 86.92 40 91 C40.66 90.34 41.32 89.68 42 89 C45.625 89.375 45.625 89.375 49 90 C49.33 91.98 49.66 93.96 50 96 C47.36 96.33 44.72 96.66 42 97 C42.33 98.051875 42.66 99.10375 43 100.1875 C43.83966782 103.38873357 44.19750904 105.7411008 44 109 C44.66 108.67 45.32 108.34 46 108 C47.99960012 107.960008 50.00047242 107.95653201 52 108 C52.66 110.31 53.32 112.62 54 115 C51.29120665 116.35439668 48.99066732 116.06501451 46 116 C46.05220703 116.90878906 46.05220703 116.90878906 46.10546875 117.8359375 C46.31318794 124.26534108 45.64233594 130.07377329 43 136 C42.02335619 137.02282299 41.02590718 138.02659646 40 139 C35.66123336 130.87933403 32.20883046 122.44239437 28.75640869 113.9211731 C27.00453715 109.59780403 25.23931453 105.27987883 23.4765625 100.9609375 C22.92807144 99.61543571 22.92807144 99.61543571 22.36849976 98.24275208 C18.68404832 89.2096129 14.95340082 80.1958601 11.21295166 71.18579102 C10.13167291 68.57858984 9.05350892 65.97011992 7.97607422 63.36132812 C4.93363996 56.00296047 1.87201237 48.65856537 -1.328125 41.3671875 C-1.80910645 40.25915771 -2.29008789 39.15112793 -2.78564453 38.00952148 C-3.64045738 36.04887436 -4.50980488 34.09445701 -5.39794922 32.14868164 C-8.88935524 24.09909376 -7.87993875 18.68417409 -4.828125 10.65820312 C-4.55484375 9.96662109 -4.2815625 9.27503906 -4 8.5625 C-3.72671875 7.84384766 -3.4534375 7.12519531 -3.171875 6.38476562 C-1.15826613 1.15826613 -1.15826613 1.15826613 0 0 Z " fill="#141414" transform="translate(24,47)"/>
<path d="M0 0 C0.66 0 1.32 0 2 0 C3.296875 1.609375 3.296875 1.609375 4.75 3.75 C8.36566962 8.68442835 11.6570943 11.26013504 17.5625 13.125 C22.839186 13.60652268 26.97707412 10.73231681 31.55859375 8.43359375 C36.97794194 6.17604462 42.20187872 6.14924379 48 6 C49.77286475 5.832795 51.54423068 5.64781059 53.3125 5.4375 C55.1378125 5.2209375 55.1378125 5.2209375 57 5 C56.90912109 6.09441406 56.90912109 6.09441406 56.81640625 7.2109375 C57.03661813 10.55628395 57.97789835 11.94149845 59.9375 14.625 C63.84766489 20.04191874 64.67339366 24.4007421 64 31 C62.5 34.5625 62.5 34.5625 61 37 C57.88289026 36.38350496 55.7477196 35.33731226 53.125 33.5625 C46.58926999 29.40996436 41.57137088 28.32058317 34 30 C29.33388122 31.92730993 27.93587348 34.41503651 26 39 C26.680625 38.236875 27.36125 37.47375 28.0625 36.6875 C31.73720198 33.32553861 34.98915919 31.24520105 40.0625 30.83203125 C44.98925933 31.06957143 48.28876543 32.60178823 52.5 35.125 C57.91189088 38.33091561 60.93215669 38.39261978 67 37 C63.64175121 46.2311283 57.43914604 52.24225593 49 57 C48.36191406 57.37511719 47.72382813 57.75023437 47.06640625 58.13671875 C42.92301782 59.86769955 38.39056964 59.55359356 34 59 C31.70242611 57.89734908 30.03024872 56.57344276 28 55 C26.515 55.495 26.515 55.495 25 56 C24.18357746 54.73168307 23.37200895 53.46024069 22.5625 52.1875 C22.11003906 51.47980469 21.65757812 50.77210938 21.19140625 50.04296875 C17.9519456 44.48809033 18.60711219 38.22457556 19 32 C20.7610713 25.77754808 25.87247784 21.6810896 31 18 C37.65383019 14.61116263 44.30255046 13.94358585 51.5 16 C52.325 16.33 53.15 16.66 54 17 C50.89089828 13.81117772 48.54260873 11.62359773 44 11.25 C39.47749956 11.46318184 36.02275086 13.37874635 32.125 15.5 C26.02035253 18.80087361 20.9377146 20.55632776 14 19 C8.38450728 16.74622721 4.76563297 13.42489544 2 8 C1.16264009 5.33873547 0.56677854 2.7394296 0 0 Z M34 40 C33.38125 40.4125 32.7625 40.825 32.125 41.25 C30.67831706 43.14408517 30.67831706 43.14408517 31.0625 46.5 C31.72823606 49.93063218 31.72823606 49.93063218 33.5625 51.9375 C37.23324636 53.53756892 40.14404134 53.88649853 44 53 C52.0169833 49.24310292 52.0169833 49.24310292 58 43 C56.948125 42.566875 55.89625 42.13375 54.8125 41.6875 C52.47539949 40.70395069 50.6208467 39.74407152 48.5 38.3125 C43.19863034 35.52928093 38.63637311 36.52272017 34 40 Z M24 41 C24 43.64 24 46.28 24 49 C24.33 49 24.66 49 25 49 C25 46.36 25 43.72 25 41 C24.67 41 24.34 41 24 41 Z M25 50 C26 52 26 52 26 52 Z M26 52 C27 54 27 54 27 54 Z " fill="#202020" transform="translate(146,425)"/>
<path d="M0 0 C13.0471394 5.4490994 20.87695318 15.70654046 26.1875 28.4375 C27.38236716 31.86961842 28.4530423 35.3357374 29.45141602 38.82983398 C30.64216296 42.96035095 32.04852244 46.70134394 34.1875 50.4375 C36.1129644 51.5865712 36.1129644 51.5865712 38.1875 51.4375 C39.1775 50.7775 40.1675 50.1175 41.1875 49.4375 C40.8575 47.7875 40.5275 46.1375 40.1875 44.4375 C38.7025 43.9425 38.7025 43.9425 37.1875 43.4375 C37.5175 42.4475 37.8475 41.4575 38.1875 40.4375 C45.26067073 38.97408537 45.26067073 38.97408537 49.5625 41.125 C53.46994275 44.56727099 53.46994275 44.56727099 54.1875 47.4375 C54.11053769 52.28612558 53.9469887 54.43931486 51 58.3125 C46.70437561 61.55808287 43.15847883 62.67452508 37.8125 62.5 C32.23215201 61.70819387 28.80109879 58.59398687 25.1875 54.4375 C22.1875 49.46875 22.1875 49.46875 22.1875 46.4375 C21.5275 46.4375 20.8675 46.4375 20.1875 46.4375 C20.105 47.015 20.0225 47.5925 19.9375 48.1875 C18.93472163 51.19583512 17.67916911 52.48457016 15.1875 54.4375 C11.9375 55.1875 11.9375 55.1875 9.1875 55.4375 C10.10893694 53.05712123 11.04019334 50.72311749 12.2109375 48.453125 C15.45352292 41.96795416 16.58476604 36.16308513 14.4921875 29.0859375 C10.79224353 20.03817536 5.41578842 13.20562819 -3.625 9.1875 C-7.74156658 8.2188961 -11.62068358 7.62332027 -15.8125 8.4375 C-17.98727572 10.78096271 -17.98727572 10.78096271 -19.8125 13.4375 C-23.5625 14.75 -23.5625 14.75 -26.8125 15.4375 C-27.1425 14.1175 -27.4725 12.7975 -27.8125 11.4375 C-28.1425 11.4375 -28.4725 11.4375 -28.8125 11.4375 C-28.626875 12.05625 -28.44125 12.675 -28.25 13.3125 C-27.8125 15.4375 -27.8125 15.4375 -28.8125 17.4375 C-30.4625 17.4375 -32.1125 17.4375 -33.8125 17.4375 C-34.3075 14.9625 -34.3075 14.9625 -34.8125 12.4375 C-35.77349609 12.36402344 -35.77349609 12.36402344 -36.75390625 12.2890625 C-42.02446085 11.8334855 -46.78236288 11.0777621 -51.8125 9.4375 C-51.8125 8.7775 -51.8125 8.1175 -51.8125 7.4375 C-49.85570312 7.21707031 -49.85570312 7.21707031 -47.859375 6.9921875 C-36.19933465 5.66317921 -36.19933465 5.66317921 -25.4375 1.25 C-17.32984215 -3.33557235 -8.71521351 -2.78740767 0 0 Z " fill="#1D1D1D" transform="translate(200.8125,416.5625)"/>
<path d="M0 0 C8.65826236 1.20168054 16.64842534 8.31367966 22 15 C31.43772686 29.02905345 35.41857162 44.26500484 32.65136719 61.12402344 C31.29510552 67.2617841 29.41139899 72.71184282 26 78 C20.84535266 77.51675181 17.18449681 74.81389239 13 72 C13.37784549 69.65735797 13.80829019 67.4537812 14.734375 65.26171875 C18.65494954 55.73768154 18.63606006 43.99787202 14.875 34.4375 C11.73592137 28.00062529 8.62118705 22.2206674 2.0625 19 C0.28125 17.89453125 0.28125 17.89453125 -1 16 C-1.30792517 10.56182162 -0.75277978 5.38332428 0 0 Z " fill="#131313" transform="translate(129,212)"/>
<path d="M0 0 C0.33 0 0.66 0 1 0 C1.09796875 1.0621875 1.1959375 2.124375 1.296875 3.21875 C2.23910293 12.47578371 3.19868478 19.37677878 9.3125 26.8125 C15.01091062 31.45074121 19.86747308 32.57557962 27.1015625 32.34765625 C39.07949043 30.91095061 48.27611464 23.79581245 57 16 C58.32138707 19.96416122 57.14441646 22.02820171 56 26 C55.67817944 30.10321209 56.03142656 32.43196064 58 36 C58 36.99 58 37.98 58 39 C56.56429734 39.81567174 55.12636566 40.62742093 53.6875 41.4375 C52.48673828 42.11619141 52.48673828 42.11619141 51.26171875 42.80859375 C49 44 49 44 46 45 C44.87998174 46.82234288 44.87998174 46.82234288 44 49 C42.66666667 51.66666667 41.33333333 54.33333333 40 57 C37.77174356 54.77174356 37.30760631 53.34238372 36.375 50.375 C36.11460937 49.55773437 35.85421875 48.74046875 35.5859375 47.8984375 C35.39257812 47.27195312 35.19921875 46.64546875 35 46 C36.44102133 48.88204267 35.65580124 50.91773419 35 54 C34.67 54.33 34.34 54.66 34 55 C31.66055264 54.71269945 29.3260857 54.38063221 27 54 C26.855625 53.030625 26.71125 52.06125 26.5625 51.0625 C26.32437659 48.13513227 26.32437659 48.13513227 25 47 C23.48174103 46.75435576 21.96023012 46.52870443 20.4375 46.3125 C12.844942 44.81781668 8.16005491 40.95882929 3.6875 34.75 C-1.95861221 25.51929883 -3.59032412 15.29143345 -1.54296875 4.6171875 C-1 2.6875 -1 2.6875 0 0 Z " fill="#1A1A1A" transform="translate(161,455)"/>
<path d="M0 0 C0.02693575 2.12493141 0.04636628 4.24995912 0.0625 6.375 C0.07410156 7.55835938 0.08570313 8.74171875 0.09765625 9.9609375 C0 13 0 13 -1 15 C-3.13305892 15.37380448 -5.28388504 15.64781564 -7.4375 15.875 C-14.52969721 16.79315397 -21.3422037 18.17012791 -27.10546875 22.62890625 C-29 24 -29 24 -31.6875 24 C-36.18225232 22.64309364 -39.99253192 20.41338633 -44 18 C-41.06429662 10.78700836 -32.83441786 7.17173499 -26.0625 4.1875 C-17.43653466 0.8255853 -9.21162228 -0.3020204 0 0 Z " fill="#111111" transform="translate(153,311)"/>
<path d="M0 0 C2.371875 0.020625 4.74375 0.04125 7.1875 0.0625 C6.8575 5.0125 6.5275 9.9625 6.1875 15.0625 C4.24875 15.145 2.31 15.2275 0.3125 15.3125 C-7.40349271 15.90862131 -13.89288082 17.7713194 -20.125 22.4375 C-22.8125 24.0625 -22.8125 24.0625 -25.125 23.625 C-26.011875 23.109375 -26.89875 22.59375 -27.8125 22.0625 C-29.41656311 21.18731016 -31.02073755 20.31232437 -32.625 19.4375 C-34.02246569 18.64871838 -35.41885 17.85800392 -36.8125 17.0625 C-33.82028923 9.71067032 -25.41351124 6.13578353 -18.5 3.1875 C-12.19727993 0.64621634 -6.77091585 -0.08357329 0 0 Z " fill="#141414" transform="translate(104.8125,206.9375)"/>
<path d="M0 0 C5.98883793 1.61887327 11.00234519 4.704575 16.3125 7.8125 C18.12079974 8.86118422 19.92939099 9.90936596 21.73828125 10.95703125 C22.61178223 11.46443848 23.4852832 11.9718457 24.38525391 12.49462891 C28.23150773 14.70900809 32.11137429 16.86110687 36 19 C36.05398987 21.27057377 36.09278742 23.54151288 36.125 25.8125 C36.14820313 27.07707031 36.17140625 28.34164063 36.1953125 29.64453125 C36 33 36 33 34 36 C30.59244728 34.07119658 27.25852365 32.1723491 24 30 C24 29.34 24 28.68 24 28 C23.23429687 27.79632813 22.46859375 27.59265625 21.6796875 27.3828125 C16.49851976 25.43574946 11.89566824 22.66112197 7.125 19.875 C6.15046875 19.31167969 5.1759375 18.74835938 4.171875 18.16796875 C1.77838038 16.78349637 -0.6120838 15.39406459 -3 14 C-2.85997291 12.56335594 -2.71435961 11.12725566 -2.56640625 9.69140625 C-2.48592041 8.89162354 -2.40543457 8.09184082 -2.32250977 7.26782227 C-1.94716142 4.62845002 -1.15944393 2.39618413 0 0 Z " fill="#191919" transform="translate(71,246)"/>
<path d="M0 0 C3.9255487 0.59050688 6.7728698 1.78735626 10.203125 3.765625 C11.18410156 4.32636719 12.16507813 4.88710938 13.17578125 5.46484375 C14.19027344 6.05394531 15.20476562 6.64304687 16.25 7.25 C18.25506325 8.40129438 20.2602697 9.55233941 22.265625 10.703125 C23.22791016 11.25806641 24.19019531 11.81300781 25.18164062 12.38476562 C29.09931357 14.63002933 33.04664319 16.81827197 37 19 C36.67 23.95 36.34 28.9 36 34 C32.51038791 34 30.88519705 33.09620626 27.8125 31.5 C26.46091797 30.80390625 26.46091797 30.80390625 25.08203125 30.09375 C24.39496094 29.7328125 23.70789063 29.371875 23 29 C23 28.34 23 27.68 23 27 C21.82050781 26.66548828 21.82050781 26.66548828 20.6171875 26.32421875 C15.8538326 24.58039876 11.55067734 22.2752828 7.125 19.8125 C6.24585937 19.35552734 5.36671875 18.89855469 4.4609375 18.42773438 C2.0769033 17.09319349 0.00662226 15.85545827 -2 14 C-2.89426969 8.88831027 -1.5746478 4.82235888 0 0 Z " fill="#191919" transform="translate(112,351)"/>
<path d="M0 0 C9 1 9 1 14 3 C13.01 16.86 12.02 30.72 11 45 C9.515 45.495 9.515 45.495 8 46 C4.37 44.02 0.74 42.04 -3 40 C-2.01 26.8 -1.02 13.6 0 0 Z " fill="#141414" transform="translate(113,207)"/>
<path d="M0 0 C3.64384997 0.91096249 6.09614916 1.99152051 9.359375 3.765625 C10.91011719 4.60673828 10.91011719 4.60673828 12.4921875 5.46484375 C13.56726563 6.05394531 14.64234375 6.64304687 15.75 7.25 C16.80960938 7.82363281 17.86921875 8.39726562 18.9609375 8.98828125 C24.76605111 12.15012353 30.43855243 15.42670277 36 19 C35.57674417 20.79508501 35.13589265 22.5860283 34.6875 24.375 C34.44386719 25.37273437 34.20023438 26.37046875 33.94921875 27.3984375 C33 30 33 30 30 32 C26.14510017 29.91802119 22.29121341 27.8341739 18.4375 25.75 C17.35146484 25.16347656 16.26542969 24.57695312 15.14648438 23.97265625 C9.72823436 21.04120183 4.32993106 18.0893718 -1 15 C-0.67 10.05 -0.34 5.1 0 0 Z " fill="#181818" transform="translate(151,354)"/>
<path d="M0 0 C5.93276331 2.25478619 11.37172026 5.3470024 16.9375 8.375 C18.00935547 8.9525 19.08121094 9.53 20.18554688 10.125 C25.27942879 12.88799725 30.26396837 15.65594984 35 19 C34.55966813 24.19591612 34.11696661 27.66335081 31 32 C26.67105835 30.68242597 22.91835849 28.99941847 18.98046875 26.77734375 C17.87638672 26.15666016 16.77230469 25.53597656 15.63476562 24.89648438 C14.49716797 24.25001953 13.35957031 23.60355469 12.1875 22.9375 C11.01912767 22.28015892 9.85050996 21.62325378 8.68164062 20.96679688 C0.1555235 16.1555235 0.1555235 16.1555235 -1 15 C-0.90913549 12.46458702 -0.7629055 9.96445216 -0.5625 7.4375 C-0.51029297 6.72658203 -0.45808594 6.01566406 -0.40429688 5.28320312 C-0.27425893 3.52178001 -0.13773103 1.76083827 0 0 Z " fill="#181818" transform="translate(110,249)"/>
<path d="M0 0 C1.38445312 0.82951172 1.38445312 0.82951172 2.796875 1.67578125 C8.20876588 4.88169686 11.22903169 4.94340103 17.296875 3.55078125 C13.93862621 12.78190955 7.73602104 18.79303718 -0.703125 23.55078125 C-1.34121094 23.92589844 -1.97929687 24.30101562 -2.63671875 24.6875 C-6.78010718 26.4184808 -11.31255536 26.10437481 -15.703125 25.55078125 C-18.00069889 24.44813033 -19.67287628 23.12422401 -21.703125 21.55078125 C-22.693125 21.88078125 -23.683125 22.21078125 -24.703125 22.55078125 C-27.34272211 17.29092474 -26.28496898 13.84397052 -24.74609375 8.3671875 C-22.85577209 3.26261102 -20.03748548 1.3206046 -15.453125 -1.32421875 C-9.70393168 -3.04897675 -5.35114505 -2.86889424 0 0 Z M-15.703125 6.55078125 C-16.321875 6.96328125 -16.940625 7.37578125 -17.578125 7.80078125 C-19.02480794 9.69486642 -19.02480794 9.69486642 -18.640625 13.05078125 C-17.97488894 16.48141343 -17.97488894 16.48141343 -16.140625 18.48828125 C-12.46987864 20.08835017 -9.55908366 20.43727978 -5.703125 19.55078125 C2.3138583 15.79388417 2.3138583 15.79388417 8.296875 9.55078125 C7.245 9.11765625 6.193125 8.68453125 5.109375 8.23828125 C2.77227449 7.25473194 0.9177217 6.29485277 -1.203125 4.86328125 C-6.50449466 2.08006218 -11.06675189 3.07350142 -15.703125 6.55078125 Z M-24.703125 16.55078125 C-23.703125 18.55078125 -23.703125 18.55078125 -23.703125 18.55078125 Z M-23.703125 18.55078125 C-22.703125 20.55078125 -22.703125 20.55078125 -22.703125 20.55078125 Z " fill="#2B2B2B" transform="translate(195.703125,458.44921875)"/>
<path d="M0 0 C4.50791308 0.53804124 7.69669292 1.67280545 11.6171875 3.94140625 C13.14472656 4.81635742 13.14472656 4.81635742 14.703125 5.70898438 C16.27320313 6.62647461 16.27320313 6.62647461 17.875 7.5625 C19.47988281 8.48579102 19.47988281 8.48579102 21.1171875 9.42773438 C23.74961393 10.94372995 26.37687243 12.46798931 29 14 C29.05384521 16.29141286 29.09272087 18.58318188 29.125 20.875 C29.14820313 22.15117187 29.17140625 23.42734375 29.1953125 24.7421875 C29 28 29 28 27 30 C23.37371425 27.96061099 19.7492167 25.91806334 16.125 23.875 C15.11179687 23.30523437 14.09859375 22.73546875 13.0546875 22.1484375 C6.64147378 18.5307272 0.29168542 14.82524706 -6 11 C-5.28839233 7.85635166 -4.38003448 5.84004598 -2.4375 3.25 C-1.98246094 2.63640625 -1.52742188 2.0228125 -1.05859375 1.390625 C-0.70925781 0.93171875 -0.35992187 0.4728125 0 0 Z " fill="#181818" transform="translate(65,225)"/>
<path d="M0 0 C-0.99 13.2 -1.98 26.4 -3 40 C-15 34 -15 34 -16 33 C-17.00296731 22.45718088 -15.09785319 11.483622 -14 1 C-11 0 -11 0 0 0 Z " fill="#151515" transform="translate(111,223)"/>
<path d="M0 0 C1.09570312 0.00902344 2.19140625 0.01804687 3.3203125 0.02734375 C4.16335937 0.03894531 5.00640625 0.05054688 5.875 0.0625 C4.48057967 33.36269216 4.48057967 33.36269216 2.875 39.0625 C-1.96293783 37.6465182 -5.80696422 35.58862794 -10.125 33.0625 C-9.85159528 27.55368585 -9.56624462 22.04575988 -9.26171875 16.53857422 C-9.17640245 14.99343504 -9.09277809 13.44820038 -9.01171875 11.90283203 C-8.91372844 10.08048455 -8.80121271 8.25893401 -8.6875 6.4375 C-8.62691406 5.41398437 -8.56632813 4.39046875 -8.50390625 3.3359375 C-8.37886719 2.58570313 -8.25382813 1.83546875 -8.125 1.0625 C-5.36047967 -0.31976016 -3.0788637 -0.03275387 0 0 Z " fill="#151515" transform="translate(146.125,327.9375)"/>
<path d="M0 0 C4.77609498 1.64178265 8.79382904 4.26546702 13 7 C12.85803484 9.85440587 12.71154174 12.70846196 12.5625 15.5625 C12.52318359 16.36236328 12.48386719 17.16222656 12.44335938 17.98632812 C12.19251844 22.71371506 11.74678186 27.32476901 11 32 C9.60582227 32.34019152 8.20955342 32.67181779 6.8125 33 C6.03519531 33.185625 5.25789063 33.37125 4.45703125 33.5625 C1.91780654 34.0146354 -0.42666848 34.02998784 -3 34 C-2.73819621 29.80046901 -2.47154065 25.60128239 -2.20043945 21.40234375 C-2.10894419 19.97469374 -2.01876131 18.54695897 -1.92993164 17.11914062 C-1.80181593 15.06356345 -1.66894054 13.00834008 -1.53515625 10.953125 C-1.456604 9.71723633 -1.37805176 8.48134766 -1.29711914 7.20800781 C-1.06188584 4.66818396 -0.72517183 2.43317729 0 0 Z " fill="#171717" transform="translate(109,267)"/>
<path d="M0 0 C4.81714842 1.51474072 8.69304252 3.41582551 13 6 C13.38297872 24.85106383 13.38297872 24.85106383 11 32 C6.86878727 33.59947396 2.35505422 33.06404492 -2 33 C-2.13444393 25.36937313 -1.75657818 17.90384185 -1 10.3125 C-0.90460938 9.31283203 -0.80921875 8.31316406 -0.7109375 7.28320312 C-0.47857196 4.85498326 -0.24154365 2.42732101 0 0 Z " fill="#151515" transform="translate(150,372)"/>
<path d="M0 0 C2.28155293 0.39337119 3.86700007 0.91286211 5.8125 2.1875 C7 4 7 4 6.75 7.125 C6 10 6 10 5 11 C2.66055264 10.71269945 0.3260857 10.38063221 -2 10 C-2.6875 7.25 -2.6875 7.25 -3 4 C-1.5625 1.625 -1.5625 1.625 0 0 Z " fill="#373737" transform="translate(190,499)"/>
<path d="M0 0 C2.475 0.99 2.475 0.99 5 2 C5.04254356 3.99954746 5.04080783 6.00041636 5 8 C2.95301586 10.04698414 -1.30411241 9.70045693 -4 10 C-4.8125 7.8125 -4.8125 7.8125 -5 5 C-2.5625 2.1875 -2.5625 2.1875 0 0 Z " fill="#2F2F2F" transform="translate(37,141)"/>
<path d="M0 0 C1.9375 0.9375 1.9375 0.9375 3.3125 3.3125 C3.51875 4.17875 3.725 5.045 3.9375 5.9375 C2.9475 7.4225 2.9475 7.4225 1.9375 8.9375 C-0.5625 9.0625 -0.5625 9.0625 -3.0625 8.9375 C-4.0525 9.4325 -4.0525 9.4325 -5.0625 9.9375 C-5.0625 8.6175 -5.0625 7.2975 -5.0625 5.9375 C-5.7225 5.9375 -6.3825 5.9375 -7.0625 5.9375 C-5.577271 2.51004846 -4.18786945 -0.12690513 0 0 Z " fill="#383838" transform="translate(54.0625,98.0625)"/>
<path d="M0 0 C1 1 1 1 1.1875 3.4375 C1 6 1 6 -1 8 C-4.125 7.625 -4.125 7.625 -7 7 C-7.93423645 3.98968256 -8.04449911 3.13349732 -7 0 C-4.31633121 -1.3418344 -2.84719317 -0.73004953 0 0 Z " fill="#383838" transform="translate(20,90)"/>
<path d="M0 0 C2.25 0.25 2.25 0.25 4 1 C5.16063604 5.25566547 4.76173392 8.6835078 4 13 C3.67 13 3.34 13 3 13 C3 11.35 3 9.7 3 8 C1.35 8 -0.3 8 -2 8 C-2.66 6.68 -3.32 5.36 -4 4 C-2.25 1.9375 -2.25 1.9375 0 0 Z " fill="#515151" transform="translate(236,429)"/>
<path d="M0 0 C1.65 0.99 3.3 1.98 5 3 C4.67 4.65 4.34 6.3 4 8 C2.35 8 0.7 8 -1 8 C-1.66 6.35 -2.32 4.7 -3 3 C-2.01 2.01 -1.02 1.02 0 0 Z " fill="#464646" transform="translate(213,508)"/>
<path d="M0 0 C2.86724686 0.57344937 3.8614515 0.8614515 6 3 C5.625 5.625 5.625 5.625 5 8 C2.69 7.67 0.38 7.34 -2 7 C-1.34 4.69 -0.68 2.38 0 0 Z " fill="#555555" transform="translate(119,454)"/>
<path d="M0 0 C1.67542976 0.28604898 3.34385343 0.61781233 5 1 C5.625 2.875 5.625 2.875 6 5 C5.34 5.66 4.68 6.32 4 7 C1.375 6.625 1.375 6.625 -1 6 C-1.042721 4.33388095 -1.04063832 2.66617115 -1 1 C-0.67 0.67 -0.34 0.34 0 0 Z " fill="#454545" transform="translate(183,467)"/>
<path d="M0 0 C1.65 0.33 3.3 0.66 5 1 C6.125 4.75 6.125 4.75 5 7 C3.35 7 1.7 7 0 7 C-1.125 2.25 -1.125 2.25 0 0 Z " fill="#525252" transform="translate(167,427)"/>
<path d="M0 0 C2.125 0.375 2.125 0.375 4 1 C4 2.65 4 4.3 4 6 C2.35 6 0.7 6 -1 6 C-1.625 4.125 -1.625 4.125 -2 2 C-1.34 1.34 -0.68 0.68 0 0 Z " fill="#454545" transform="translate(237,461)"/>
<path d="M0 0 C0.99 0 1.98 0 3 0 C3 1.98 3 3.96 3 6 C2.34 4.68 1.68 3.36 1 2 C-2.53586014 5.17320782 -4.58578031 7.16743695 -5 12 C-5.33 12 -5.66 12 -6 12 C-6.3125 9.3125 -6.3125 9.3125 -6 6 C-3.5625 3.1875 -3.5625 3.1875 -1 1 C-0.67 0.67 -0.34 0.34 0 0 Z " fill="#7F7F7F" transform="translate(224,476)"/>
<path d="M0 0 C0.99 0.33 1.98 0.66 3 1 C2.67 4.96 2.34 8.92 2 13 C1.67 13 1.34 13 1 13 C0.67 10.03 0.34 7.06 0 4 C-1.98 4.99 -1.98 4.99 -4 6 C-2.68 4.02 -1.36 2.04 0 0 Z " fill="#707070" transform="translate(147,469)"/>
<path d="M0 0 C0.66 0 1.32 0 2 0 C3.32 2.31 4.64 4.62 6 7 C5.01 7.99 4.02 8.98 3 10 C2.01 6.7 1.02 3.4 0 0 Z " fill="#747474" transform="translate(146,425)"/>
<path d="M0 0 C0.66 0.33 1.32 0.66 2 1 C-0.97 3.97 -3.94 6.94 -7 10 C-7 6.04435836 -5.59478606 4.89133304 -3 2 C-2.01 1.34 -1.02 0.68 0 0 Z " fill="#5E5E5E" transform="translate(215,496)"/>
<path d="M0 0 C0.33 0 0.66 0 1 0 C0.98839844 0.74765625 0.97679687 1.4953125 0.96484375 2.265625 C0.95582031 3.25046875 0.94679687 4.2353125 0.9375 5.25 C0.92589844 6.22453125 0.91429687 7.1990625 0.90234375 8.203125 C0.98804423 10.65758678 1.29293934 12.66168914 2 15 C1.34 15 0.68 15 0 15 C-2.72580143 10.45699761 -1.63313152 6.89047526 -0.5078125 2.01171875 C-0.34023437 1.34785156 -0.17265625 0.68398438 0 0 Z " fill="#898989" transform="translate(171,466)"/>
<path d="M0 0 C0.66 0.33 1.32 0.66 2 1 C0.88121617 2.17262904 -0.24523051 3.33795138 -1.375 4.5 C-2.00148438 5.1496875 -2.62796875 5.799375 -3.2734375 6.46875 C-5 8 -5 8 -7 8 C-5.50902342 4.2047869 -3.24299151 2.38957269 0 0 Z " fill="#616161" transform="translate(116,321)"/>
<path d="M0 0 C0.66 0 1.32 0 2 0 C2 0.66 2 1.32 2 2 C2.66 2.33 3.32 2.66 4 3 C3.34 4.32 2.68 5.64 2 7 C0.4375 5.75 0.4375 5.75 -1 4 C-0.6875 1.8125 -0.6875 1.8125 0 0 Z " fill="#777777" transform="translate(52,233)"/>
<path d="M0 0 C0.66 0.33 1.32 0.66 2 1 C-0.31 3.31 -2.62 5.62 -5 8 C-5 5 -5 5 -2.5 2.3125 C-1.675 1.549375 -0.85 0.78625 0 0 Z " fill="#565656" transform="translate(178,458)"/>
</svg>
